<svg id="visual" viewBox="0 0 960 540" width="960" height="540" xmlns="http://www.w3.org/2000/svg" xmlns:xlink="http://www.w3.org/1999/xlink" version="1.1"><rect x="0" y="0" width="960" height="540" fill="#FF0066"></rect><g transform="translate(483.1831729894286 209.59279588531362)"><path d="M134.1 -131.8C182.5 -119.2 236.5 -85.2 247.9 -40.8C259.2 3.7 227.9 58.6 198.7 120C169.5 181.4 142.5 249.3 96.7 266.1C51 282.8 -13.5 248.5 -74.3 219.7C-135.1 190.8 -192.3 167.4 -224.7 123.7C-257.2 80 -265 15.9 -247.6 -36.9C-230.3 -89.8 -187.8 -131.5 -142.3 -144.5C-96.8 -157.6 -48.4 -142.1 -2.8 -138.8C42.9 -135.5 85.7 -144.3 134.1 -131.8" fill="#4f2bbb"></path></g></svg>