<svg id="visual" viewBox="0 0 960 540" width="960" height="540" xmlns="http://www.w3.org/2000/svg" xmlns:xlink="http://www.w3.org/1999/xlink" version="1.1"><rect x="0" y="0" width="960" height="540" fill="#5b4796"></rect><path d="M0 345L32 340C64 335 128 325 192 313.5C256 302 320 289 384 287.2C448 285.3 512 294.7 576 300.2C640 305.7 704 307.3 768 299.8C832 292.3 896 275.7 928 267.3L960 259L960 541L928 541C896 541 832 541 768 541C704 541 640 541 576 541C512 541 448 541 384 541C320 541 256 541 192 541C128 541 64 541 32 541L0 541Z" fill="#5b4796"></path><path d="M0 305L32 318.7C64 332.3 128 359.7 192 377.7C256 395.7 320 404.3 384 407.3C448 410.3 512 407.7 576 406.5C640 405.3 704 405.7 768 398.2C832 390.7 896 375.3 928 367.7L960 360L960 541L928 541C896 541 832 541 768 541C704 541 640 541 576 541C512 541 448 541 384 541C320 541 256 541 192 541C128 541 64 541 32 541L0 541Z" fill="#7156b6"></path><path d="M0 508L32 501.5C64 495 128 482 192 463.5C256 445 320 421 384 413.7C448 406.3 512 415.7 576 427C640 438.3 704 451.7 768 465.7C832 479.7 896 494.3 928 501.7L960 509L960 541L928 541C896 541 832 541 768 541C704 541 640 541 576 541C512 541 448 541 384 541C320 541 256 541 192 541C128 541 64 541 32 541L0 541Z" fill="#8965d6"></path></svg>