<?xml version="1.0" encoding="utf-8"?>
<!-- Generator: Adobe Illustrator 26.3.1, SVG Export Plug-In . SVG Version: 6.00 Build 0)  -->
<svg version="1.1" id="visual" xmlns="http://www.w3.org/2000/svg" xmlns:xlink="http://www.w3.org/1999/xlink" x="0px" y="0px"
	 viewBox="0 0 960 296.3" style="enable-background:new 0 0 960 296.3;" xml:space="preserve">
<style type="text/css">
	.st0{fill:#5B4796;}
	.st1{fill:#7156B6;}
	.st2{fill:#8965D6;}
</style>
<path class="st0" d="M0,101.3l32-5c32-5,96-15,160-26.5s128-24.5,192-26.3c64-1.9,128,7.5,192,13s128,7.1,192-0.4S896,32,928,23.6
	l32-8.3v282h-32c-32,0-96,0-160,0s-128,0-192,0s-128,0-192,0s-128,0-192,0s-128,0-160,0H0V101.3z"/>
<path class="st1" d="M0,61.3L32,75c32,13.6,96,41,160,59s128,26.6,192,29.6s128,0.4,192-0.8s128-0.8,192-8.3s128-22.9,160-30.5
	l32-7.7v181h-32c-32,0-96,0-160,0s-128,0-192,0s-128,0-192,0s-128,0-192,0s-128,0-160,0H0V61.3z"/>
<path class="st2" d="M0,264.3l32-6.5c32-6.5,96-19.5,160-38s128-42.5,192-49.8c64-7.4,128,2,192,13.3S704,208,768,222
	s128,28.6,160,36l32,7.3v32h-32c-32,0-96,0-160,0s-128,0-192,0s-128,0-192,0s-128,0-192,0s-128,0-160,0H0V264.3z"/>
</svg>
